<?xml version="1.0" encoding="utf-8"?>
<!-- Generator: Adobe Illustrator 18.0.0, SVG Export Plug-In . SVG Version: 6.00 Build 0)  -->
<!DOCTYPE svg PUBLIC "-//W3C//DTD SVG 1.1//EN" "http://www.w3.org/Graphics/SVG/1.1/DTD/svg11.dtd">
<svg version="1.1" id="Layer_1" xmlns="http://www.w3.org/2000/svg" xmlns:xlink="http://www.w3.org/1999/xlink" x="0px" y="0px"
	 viewBox="0 0 92 104.8" enable-background="new 0 0 92 104.8" xml:space="preserve">
<polyline fill="#FFFFFF" stroke="#ffffff" stroke-miterlimit="10" points="87.6,28.7 47.9,52.3 3.9,78.5 "/>
<line fill="#FFFFFF" stroke="#ffffff" stroke-miterlimit="10" x1="20.6" y1="76" x2="18.1" y2="85.1"/>
<line fill="#FFFFFF" stroke="#ffffff" stroke-miterlimit="10" x1="4.6" y1="59.7" x2="23.4" y2="66.6"/>
<line fill="#FFFFFF" stroke="#ffffff" stroke-miterlimit="10" x1="87" y1="43.1" x2="68.9" y2="39.4"/>
<line fill="#FFFFFF" stroke="#ffffff" stroke-miterlimit="10" x1="74.9" y1="19.9" x2="72.3" y2="29"/>
<polyline fill="#FFFFFF" stroke="#ffffff" stroke-miterlimit="10" points="82.6,84.4 46.6,55.5 6.7,23.4 "/>
<line fill="#FFFFFF" stroke="#ffffff" stroke-miterlimit="10" x1="14.9" y1="38.2" x2="5.5" y2="39"/>
<line fill="#FFFFFF" stroke="#ffffff" stroke-miterlimit="10" x1="24.6" y1="17.5" x2="24.7" y2="37.6"/>
<line fill="#FFFFFF" stroke="#ffffff" stroke-miterlimit="10" x1="69" y1="88.9" x2="66.1" y2="70.7"/>
<line fill="#FFFFFF" stroke="#ffffff" stroke-miterlimit="10" x1="86.4" y1="69.4" x2="77.1" y2="70.2"/>
<polyline fill="#FFFFFF" stroke="#ffffff" stroke-miterlimit="10" points="44.9,101.6 44.8,55.5 44.6,4.3 "/>
<line fill="#FFFFFF" stroke="#ffffff" stroke-miterlimit="10" x1="38.2" y1="19.9" x2="31.7" y2="13.1"/>
<line fill="#FFFFFF" stroke="#ffffff" stroke-miterlimit="10" x1="60.5" y1="14.4" x2="44.9" y2="27.2"/>
<line fill="#FFFFFF" stroke="#ffffff" stroke-miterlimit="10" x1="32.8" y1="93.8" x2="45.2" y2="80.1"/>
<line fill="#FFFFFF" stroke="#ffffff" stroke-miterlimit="10" x1="58.9" y1="95.2" x2="52.4" y2="88.4"/>
</svg>
