<?xml version="1.0" encoding="utf-8"?>
<!-- Generator: Adobe Illustrator 18.0.0, SVG Export Plug-In . SVG Version: 6.00 Build 0)  -->
<!DOCTYPE svg PUBLIC "-//W3C//DTD SVG 1.1//EN" "http://www.w3.org/Graphics/SVG/1.1/DTD/svg11.dtd">
<svg version="1.1" id="Layer_1" xmlns="http://www.w3.org/2000/svg" xmlns:xlink="http://www.w3.org/1999/xlink" x="0px" y="0px"
	 viewBox="0 0 92 104.8" enable-background="new 0 0 92 104.8" xml:space="preserve">
<polyline fill="#FFFFFF" stroke="#000000" stroke-miterlimit="10" points="44.3,28.2 28.8,19.7 63.5,19.7 44.3,28.2 44.3,97.2 "/>
<polyline fill="#FFFFFF" stroke="#000000" stroke-miterlimit="10" points="27.3,19.2 27.3,14.2 65.3,14.6 65.3,19.2 "/>
<path fill="#FFFFFF" stroke="#000000" stroke-miterlimit="10" d="M64.5,19.7c0,0,7.8,2.8,7.8,13.7c0,0-2.1,4.4-4.3,3.8
	c-2.2-0.5-2.9,4-2.9,4s-8,1.8-8,7.9s3.5,9.6,3.5,9.6h6.3"/>
<path fill="#FFFFFF" stroke="#000000" stroke-miterlimit="10" d="M65.7,41.2c0,0,7.8,1.8,7.8,7.9s-3.4,9.6-3.4,9.6h-6.3"/>
<line fill="#FFFFFF" stroke="#000000" stroke-miterlimit="10" x1="57.8" y1="52.7" x2="72.8" y2="52.7"/>
<path fill="#FFFFFF" stroke="#000000" stroke-miterlimit="10" d="M65.1,41.2"/>
</svg>
