<?xml version="1.0" encoding="utf-8"?>
<!-- Generator: Adobe Illustrator 18.0.0, SVG Export Plug-In . SVG Version: 6.00 Build 0)  -->
<!DOCTYPE svg PUBLIC "-//W3C//DTD SVG 1.1//EN" "http://www.w3.org/Graphics/SVG/1.1/DTD/svg11.dtd">
<svg version="1.1" id="Layer_1" xmlns="http://www.w3.org/2000/svg" xmlns:xlink="http://www.w3.org/1999/xlink" x="0px" y="0px"
	 viewBox="0 0 92 104.8" enable-background="new 0 0 92 104.8" xml:space="preserve">
<g>
	<path d="M46.1,96.2c-11.9,0-23.7,0-35.6,0c-3.6,0-6.6-2.4-7.3-5.9c-0.1-0.4-0.1-0.9-0.1-1.4c0-23.8,0-47.5,0-71.3
		c0-4,3.2-7.3,7.3-7.3c1.2,0,2.4,0,3.6,0c22.5,0,45,0,67.5,0c2.1,0,3.9,0.6,5.4,2c1.4,1.4,2.2,3.1,2.3,5.1c0,0.1,0,0.3,0,0.4
		c0,23.6,0,47.3,0,70.9c0,2.9-1.3,5.1-3.7,6.6c-1.1,0.7-2.4,0.9-3.7,0.9C69.8,96.2,57.9,96.2,46.1,96.2z M46.1,10.9
		c-11.7,0-23.4,0-35.1,0c-0.3,0-0.6,0-0.8,0c-3,0.1-5.8,2.5-6.2,5.5c-0.1,1.1-0.1,2.2-0.1,3.3c0,23,0,45.9,0,68.9
		c0,0.7,0.1,1.4,0.2,2.1c0.8,3,3.4,4.9,6.6,4.9c23.7,0,47.3,0,71,0c0.1,0,0.3,0,0.4,0c1.4,0,2.6-0.5,3.7-1.3
		c1.8-1.4,2.7-3.3,2.7-5.6c0-23.6,0-47.2,0-70.8c0-0.1,0-0.3,0-0.4c0-1.3-0.4-2.5-1.2-3.6c-1.4-2-3.3-2.9-5.8-2.9
		C69.6,10.9,57.8,10.9,46.1,10.9z"/>
	<path fill="#FFFFFF" d="M46.1,10.9c11.8,0,23.6,0,35.4,0c2.4,0,4.4,0.9,5.8,2.9c0.8,1.1,1.2,2.3,1.2,3.6c0,0.1,0,0.3,0,0.4
		c0,23.6,0,47.2,0,70.8c0,2.3-0.9,4.2-2.7,5.6c-1.1,0.8-2.3,1.2-3.7,1.3c-0.1,0-0.3,0-0.4,0c-23.7,0-47.3,0-71,0
		c-3.2,0-5.8-1.9-6.6-4.9c-0.2-0.7-0.2-1.4-0.2-2.1c0-23,0-45.9,0-68.9c0-1.1,0-2.2,0.1-3.3c0.4-3,3.2-5.4,6.2-5.5
		c0.3,0,0.6,0,0.8,0C22.6,10.9,34.3,10.9,46.1,10.9z M46.1,12.2c-11.7,0-23.4,0-35.1,0c-0.3,0-0.7,0-1,0c-1,0-1.9,0.4-2.7,1
		c-1.5,1.1-2.2,2.6-2.2,4.5c0,23.7,0,47.3,0,71c0,0.2,0,0.4,0,0.5c0,1,0.4,1.9,1,2.7c1.1,1.5,2.7,2.2,4.6,2.2c23.6,0,47.2,0,70.8,0
		c0.2,0,0.4,0,0.6,0c1.2-0.1,2.2-0.5,3.1-1.3c1.3-1.2,1.8-2.6,1.8-4.4c0-23.5,0-47.1,0-70.6c0-0.2,0-0.4,0-0.7
		c-0.1-1.4-0.7-2.6-1.7-3.6c-1.1-1-2.5-1.4-4-1.4C69.6,12.2,57.8,12.2,46.1,12.2z"/>
	<path d="M46.1,12.2c11.8,0,23.5,0,35.3,0c1.5,0,2.9,0.4,4,1.4c1.1,1,1.6,2.2,1.7,3.6c0,0.2,0,0.4,0,0.7c0,23.5,0,47.1,0,70.6
		c0,1.7-0.5,3.2-1.8,4.4c-0.9,0.8-1.9,1.2-3.1,1.3c-0.2,0-0.4,0-0.6,0c-23.6,0-47.2,0-70.8,0c-1.9,0-3.5-0.7-4.6-2.2
		c-0.6-0.8-0.9-1.7-1-2.7c0-0.2,0-0.4,0-0.5c0-23.7,0-47.3,0-71c0-1.9,0.7-3.3,2.2-4.5c0.8-0.6,1.7-0.9,2.7-1c0.3,0,0.7,0,1,0
		C22.7,12.2,34.4,12.2,46.1,12.2z M37.7,60.1c0.3,0,0.5,0,0.8,0c4.8,0,9.6,0.1,14.3-0.4c1.7-0.2,3.5-0.5,5.1-1.2
		c4.5-1.9,7.6-5.1,9.1-9.8c1.1-3.3,1.1-6.7,0.6-10.1c-0.7-4.4-2.9-7.8-6.5-10.3c-2.5-1.7-5.2-2.5-8.2-2.6c-2.7-0.1-5.3-0.3-8-0.3
		c-6.7,0-13.4,0-20.1,0c-0.4,0-0.5,0.1-0.5,0.5c0,18.4,0,36.8,0,55.2c0,0.1,0,0.3,0,0.5c4.5,0,8.9,0,13.4,0
		C37.7,74.3,37.7,67.3,37.7,60.1z"/>
	<path fill="#FFFFFF" d="M37.7,60.1c0,7.1,0,14.2,0,21.3c-4.5,0-8.9,0-13.4,0c0-0.2,0-0.3,0-0.5c0-18.4,0-36.8,0-55.2
		c0-0.4,0.1-0.5,0.5-0.5c6.7,0,13.4,0,20.1,0c2.7,0,5.3,0.2,8,0.3c3,0.2,5.7,0.9,8.2,2.6c3.6,2.5,5.8,6,6.5,10.3
		C68.1,42,68,45.4,67,48.7c-1.5,4.7-4.7,7.9-9.1,9.8c-1.6,0.7-3.3,1-5.1,1.2c-4.8,0.6-9.5,0.4-14.3,0.4C38.2,60.1,38,60.1,37.7,60.1
		z M37.7,50.6c0.1,0,0.1,0,0.2,0c2.9-0.1,5.8-0.1,8.7-0.2c1.6-0.1,3-0.6,4.3-1.5c2-1.3,3-3.2,3.2-5.5c0.2-2.6-0.5-4.8-2.6-6.5
		c-1.5-1.2-3.2-1.8-5-1.9c-2.9-0.2-5.7-0.1-8.6-0.2c0,0-0.1,0-0.1,0C37.7,40.1,37.7,45.3,37.7,50.6z"/>
	<path d="M37.7,50.6c0-5.3,0-10.5,0-15.7c0.1,0,0.1,0,0.1,0c2.9,0.1,5.7,0,8.6,0.2c1.8,0.1,3.6,0.7,5,1.9c2.1,1.7,2.8,3.9,2.6,6.5
		c-0.2,2.3-1.3,4.2-3.2,5.5c-1.3,0.9-2.8,1.4-4.3,1.5c-2.9,0.1-5.8,0.1-8.7,0.2C37.8,50.6,37.8,50.6,37.7,50.6z"/>
</g>
</svg>
