<?xml version="1.0" encoding="utf-8"?>
<!-- Generator: Adobe Illustrator 18.0.0, SVG Export Plug-In . SVG Version: 6.00 Build 0)  -->
<!DOCTYPE svg PUBLIC "-//W3C//DTD SVG 1.1//EN" "http://www.w3.org/Graphics/SVG/1.1/DTD/svg11.dtd">
<svg version="1.1" id="Layer_1" xmlns="http://www.w3.org/2000/svg" xmlns:xlink="http://www.w3.org/1999/xlink" x="0px" y="0px"
	 viewBox="0 0 92 104.8" enable-background="new 0 0 92 104.8" xml:space="preserve">
<g>
	<path d="M77.7,21.8c0,0.4,0,0.8-0.1,1.1c-3.6,8.2-8.3,15.6-15.2,21.5c-5.5,4.7-11.8,7.2-19.1,7.2c-8.9,0.1-17.2,2.3-24.8,6.9
		c-6,3.7-11.1,8.4-14.9,14.3c-0.1,0.2-0.3,0.4-0.4,0.6c0,0-0.1,0-0.6,0.1c0.4-0.8,0.7-1.5,1.1-2.2c-0.7-0.4-1.4-0.8-2-1.2
		c0-0.1,0-0.2,0-0.3c0.7-1,1.5-1.9,2.2-2.9c0.1-0.1,0.2-0.2,0.4-0.3c0.6,0.5,1.3,1,2,1.5c0.8-0.9,1.7-1.8,2.6-2.8
		C8.1,64.6,7.6,64,7,63.3c1-0.9,1.9-1.8,3-2.8c0.6,0.7,1.1,1.3,1.8,1.9c1-0.8,1.9-1.5,3-2.3c-0.5-0.7-0.9-1.3-1.4-2.1
		c1.1-0.8,2.2-1.5,3.4-2.3c0.5,0.7,1,1.4,1.4,2.1c1.1-0.6,2.2-1.2,3.3-1.8c-0.3-0.8-0.7-1.5-1.1-2.4c1.2-0.6,2.4-1.1,3.7-1.7
		c0.4,0.8,0.7,1.5,1.1,2.3c1.2-0.4,2.3-0.8,3.6-1.2c-0.2-0.8-0.4-1.6-0.7-2.6c1.3-0.3,2.5-0.7,3.8-1c0.3,0.9,0.5,1.6,0.7,2.5
		c1.2-0.2,2.4-0.4,3.7-0.7c-0.1-0.8-0.2-1.6-0.3-2.5c1.3-0.2,2.5-0.3,3.9-0.5c0.2,0.9,0.3,1.7,0.4,2.5c1.2,0,2.4,0,3.7,0
		c0-0.9,0.1-1.6,0.1-2.6c0.8-0.1,1.6-0.1,2.5-0.2c0.1,0.8,0.3,1.6,0.4,2.6c0.9-0.2,1.8-0.3,2.8-0.4c-0.2-0.9-0.3-1.6-0.5-2.5
		c0.8-0.2,1.5-0.4,2.3-0.7c0.3,0.8,0.6,1.6,1,2.4c0.8-0.3,1.5-0.6,2.4-1c-0.3-0.8-0.7-1.5-1-2.4c0.7-0.4,1.4-0.8,2.2-1.2
		c0.4,0.7,0.9,1.4,1.4,2.2c0.8-0.5,1.5-0.9,2.3-1.5c-0.5-0.7-1-1.4-1.5-2.2c0.7-0.6,1.3-1.1,2.1-1.8c0.5,0.7,1,1.3,1.6,2
		c0.8-0.8,1.5-1.4,2.2-2c-0.6-0.7-1.2-1.3-1.7-1.9c0.6-0.7,1.2-1.4,1.9-2.1c0.7,0.5,1.2,1,2,1.6c0.6-0.7,1.2-1.4,1.9-2.2
		c-0.7-0.6-1.3-1.1-2-1.7c0.6-0.8,1.1-1.6,1.7-2.4c0.7,0.5,1.4,0.9,2.2,1.4c0.6-0.8,1.1-1.6,1.7-2.5c-0.7-0.5-1.3-0.9-2.1-1.5
		c0.5-0.8,1-1.6,1.5-2.6c0.8,0.4,1.5,0.7,2.3,1.1c0.5-0.9,0.9-1.7,1.4-2.6c-0.8-0.5-1.5-0.9-2.3-1.3c0.4-0.9,0.8-1.7,1.3-2.7
		c0.8,0.3,1.5,0.6,2.4,1c0.2-0.6,0.3-1,0.5-1.5C77.3,21.8,77.5,21.8,77.7,21.8z"/>
	<path d="M10.9,77.9c0.2-0.4,0.3-0.8,0.5-1.3c-1.9-1.3-3.8-2.6-5.7-4c-0.5,0.6-0.9,1.1-1.3,1.6C4.2,74.1,4,74,3.9,74
		c0.2-0.4,0.4-0.8,0.7-1.2c5.7-8.3,13.3-14.1,22.7-17.5c5.4-2,11-2.9,16.8-2.9c7.9,0,14.5-3.3,20.2-8.6c6.1-5.7,10.5-12.6,13.9-20.2
		c0.2-0.4,0.4-0.8,0.6-1.2c0.1,0,0.3,0.1,0.4,0.1c-0.1,0.6-0.2,1.2-0.3,1.9c2.1,0.9,4.2,1.9,6.4,2.8c0.4-0.7,0.7-1.4,1-2
		c0.1,0,0.2,0.1,0.3,0.1c0,0.2,0.1,0.4,0.1,0.6C81.3,38,74.1,48.7,62.5,55.9c-5.4,3.3-11.3,5-17.6,5.1c-7,0.1-13.6,1.4-19.8,4.7
		c-5.2,2.8-9.6,6.7-13,11.5c-0.2,0.3-0.4,0.5-0.6,0.8C11.3,78,11.2,78,10.9,77.9z M47.1,52.9c0.3,2.5,0.5,4.8,0.8,7.2
		c1.5-0.3,2.7-0.5,4-0.7c-0.6-2.4-1.1-4.6-1.6-7C49.2,52.6,48.2,52.7,47.1,52.9z M40.3,53.2c0.2,2.5,0.4,4.8,0.6,7.2
		c1.1-0.1,2-0.1,3-0.1c0-2.5,0-4.8,0-7.1C42.6,53.2,41.6,53.2,40.3,53.2z M36.6,53.6c-1.3,0.3-2.4,0.5-3.6,0.7
		c0.6,2.4,1.1,4.7,1.6,7c1.1-0.2,2-0.4,3.1-0.6C37.3,58.4,36.9,56.1,36.6,53.6z M31.5,62.2c-0.7-2.3-1.4-4.6-2.2-6.9
		c-1.2,0.5-2.3,0.8-3.5,1.3c0.9,2.3,1.8,4.5,2.7,6.7C29.6,62.8,30.4,62.5,31.5,62.2z M19.2,59.8C20.5,62,21.7,64,23,66
		c1-0.5,1.8-1,2.7-1.5c-1.1-2.2-2.1-4.2-3.2-6.4C21.3,58.7,20.3,59.2,19.2,59.8z M7.9,69.5c1.9,1.6,3.7,3.1,5.5,4.6
		c0.7-0.8,1.4-1.5,1.8-2c-1.7-1.8-3.3-3.5-4.9-5.2C9.5,67.8,8.7,68.6,7.9,69.5z M61.3,47.2c-0.9,0.6-1.7,1.1-2.5,1.7
		c1.3,2.1,2.4,4,3.7,6.2c1.1-0.7,2-1.4,3.1-2C64.1,51,62.7,49.2,61.3,47.2z M56,50.4c-1,0.5-1.9,0.8-2.8,1.2
		c0.8,2.3,1.6,4.5,2.4,6.8c1.2-0.5,2.3-0.9,3.5-1.4C58,54.7,57,52.6,56,50.4z M74,32.9c-0.6,1-1.2,1.8-1.8,2.7
		c2,1.4,3.9,2.7,5.9,4.1c0.7-1.1,1.3-2,1.9-3C78,35.4,76.1,34.2,74,32.9z M76,42.7c-2-1.5-3.8-3-5.7-4.4c-0.7,0.9-1.4,1.7-2,2.5
		c1.9,1.6,3.6,3.1,5.4,4.7C74.5,44.5,75.2,43.6,76,42.7z M16,62c-1,0.8-1.9,1.5-2.9,2.3c1.6,1.9,3.2,3.7,4.7,5.5
		c0.9-0.7,1.6-1.3,2.4-1.9C18.8,65.8,17.5,64,16,62z M83.7,30.5c-2.2-1.1-4.3-2.2-6.4-3.3c-0.5,1-1,1.9-1.5,2.9
		c2.1,1.2,4.1,2.3,6.2,3.5C82.6,32.5,83.1,31.6,83.7,30.5z M68.5,50.7c0.9-0.9,1.8-1.7,2.4-2.3c-1.7-1.7-3.4-3.4-5.1-5.1
		c-0.6,0.6-1.3,1.2-2.1,2C65.3,47,66.9,48.8,68.5,50.7z"/>
	<path d="M17.1,73.5c-0.7,0.8-1.2,1.4-1.9,2.1c0.7,0.6,1.4,1.2,2.2,2c-0.5,0.7-1,1.3-1.6,2c-0.8-0.5-1.5-1-2.3-1.5
		c-0.3,0.2-0.7,0.5-1,0.7c-0.1-0.1-0.2-0.1-0.3-0.2c0.2-0.4,0.4-0.8,0.6-1.1c6.6-8.9,15.4-14,26.3-15.3c3.9-0.5,7.9-0.4,11.8-1.1
		c8-1.4,14.6-5.4,20.4-11c6.8-6.6,11.8-14.4,15.6-23c0.2-0.4,0.4-0.9,0.6-1.3c0-0.1,0.2,0,0.6-0.1c-0.2,0.9-0.5,1.6-0.7,2.4
		c0.8,0.4,1.6,0.8,2.5,1.3c-0.6,1.2-1.1,2.3-1.6,3.5c-0.9-0.5-1.8-0.9-2.6-1.3c-0.6,1.1-1.1,2.1-1.7,3.2c0.9,0.5,1.6,1,2.5,1.5
		c-0.7,1.1-1.3,2.1-1.9,3.3C83.8,39,83,38.5,82.1,38c-0.7,1-1.3,1.9-2,3c0.8,0.6,1.5,1.1,2.4,1.7c-0.7,1-1.5,2-2.2,3.1
		c-0.8-0.6-1.6-1.1-2.4-1.7c-0.8,0.9-1.5,1.8-2.3,2.8c0.7,0.7,1.4,1.3,2.1,2c-0.9,1-1.7,1.9-2.7,2.9c-0.7-0.7-1.4-1.3-2.1-2
		c-0.9,0.8-1.8,1.6-2.8,2.5c0.6,0.7,1.2,1.4,1.9,2.3c-1,0.8-2.1,1.7-3.2,2.6c-0.6-0.8-1.2-1.5-1.8-2.3c-1.1,0.7-2.1,1.4-3.2,2.1
		c0.4,0.8,0.9,1.6,1.4,2.6c-1.2,0.7-2.4,1.3-3.7,2c-0.5-0.9-0.9-1.7-1.3-2.6c-1.2,0.5-2.4,1-3.7,1.5c0.3,0.9,0.5,1.8,0.9,2.8
		c-1.4,0.4-2.7,0.8-4.2,1.2c-0.3-1-0.5-1.8-0.7-2.8c-1.4,0.2-2.8,0.4-4.3,0.7c0.1,1,0.1,1.9,0.2,2.9c-1.4,0-2.7,0-4.1,0
		c-0.1-0.9-0.1-1.8-0.2-2.7c-1,0.1-1.9,0.1-2.9,0.2c0,1,0.1,1.8,0.1,2.8c-0.8,0.1-1.7,0.3-2.7,0.4c-0.2-1-0.4-1.9-0.6-2.9
		c-0.9,0.2-1.8,0.3-2.8,0.5c0.2,1,0.3,1.9,0.5,2.9c-0.8,0.2-1.6,0.4-2.6,0.7c-0.3-0.9-0.6-1.7-1-2.7c-0.9,0.3-1.7,0.6-2.7,0.9
		c0.4,1,0.7,1.8,1,2.8c-0.8,0.4-1.6,0.7-2.4,1.1c-0.4-0.8-0.9-1.6-1.4-2.5c-0.8,0.4-1.6,0.8-2.5,1.3c0.5,0.9,1,1.7,1.5,2.6
		c-0.7,0.5-1.4,1-2.2,1.5c-0.6-0.8-1.1-1.5-1.8-2.3c-0.7,0.6-1.4,1.1-2.2,1.7c0.6,0.8,1.2,1.5,1.8,2.3c-0.6,0.6-1.2,1.1-2,1.8
		C18.6,74.9,17.9,74.2,17.1,73.5z"/>
	<path fill="#FFFFFF" d="M47.1,52.9c1.2-0.2,2.1-0.3,3.2-0.5c0.5,2.3,1,4.6,1.6,7c-1.3,0.2-2.5,0.4-4,0.7
		C47.6,57.7,47.3,55.4,47.1,52.9z"/>
	<path fill="#FFFFFF" d="M40.3,53.2c1.3,0,2.4,0,3.6,0c0,2.3,0,4.6,0,7.1c-0.9,0-1.9,0.1-3,0.1C40.7,58,40.5,55.7,40.3,53.2z"/>
	<path fill="#FFFFFF" d="M36.6,53.6c0.4,2.5,0.7,4.8,1.1,7.2c-1.1,0.2-2,0.4-3.1,0.6c-0.5-2.3-1.1-4.6-1.6-7
		C34.1,54.1,35.3,53.8,36.6,53.6z"/>
	<path fill="#FFFFFF" d="M31.5,62.2c-1,0.4-1.9,0.7-2.9,1c-0.9-2.2-1.8-4.3-2.7-6.7c1.1-0.4,2.2-0.8,3.5-1.3
		C30,57.6,30.7,59.8,31.5,62.2z"/>
	<path fill="#FFFFFF" d="M19.2,59.8c1.1-0.6,2.1-1.2,3.2-1.8c1.1,2.2,2.1,4.2,3.2,6.4c-0.9,0.5-1.7,1-2.7,1.5
		C21.7,64,20.5,62,19.2,59.8z"/>
	<path fill="#FFFFFF" d="M7.9,69.5c0.8-0.9,1.6-1.8,2.4-2.6c1.7,1.8,3.3,3.5,4.9,5.2c-0.4,0.5-1.1,1.2-1.8,2
		C11.6,72.6,9.8,71.1,7.9,69.5z"/>
	<path fill="#FFFFFF" d="M61.3,47.2c1.5,2,2.8,3.8,4.3,5.8c-1,0.7-2,1.3-3.1,2C61.2,53,60,51,58.7,48.9
		C59.6,48.4,60.3,47.8,61.3,47.2z"/>
	<path fill="#FFFFFF" d="M56,50.4c1.1,2.2,2,4.3,3.1,6.5c-1.2,0.5-2.3,0.9-3.5,1.4c-0.8-2.3-1.6-4.5-2.4-6.8
		C54.1,51.2,54.9,50.8,56,50.4z"/>
	<path fill="#FFFFFF" d="M74,32.9c2.1,1.3,4,2.5,6.1,3.8c-0.6,1-1.2,1.9-1.9,3c-2-1.4-3.9-2.7-5.9-4.1C72.9,34.7,73.4,33.9,74,32.9z
		"/>
	<path fill="#FFFFFF" d="M76,42.7c-0.8,1-1.5,1.8-2.3,2.8c-1.8-1.6-3.5-3.1-5.4-4.7c0.6-0.8,1.3-1.6,2-2.5
		C72.2,39.7,74,41.1,76,42.7z"/>
	<path fill="#FFFFFF" d="M16,62c1.5,2,2.8,3.9,4.2,5.8c-0.8,0.6-1.5,1.2-2.4,1.9c-1.5-1.8-3.1-3.6-4.7-5.5C14.1,63.5,15,62.8,16,62z
		"/>
	<path fill="#FFFFFF" d="M83.7,30.5c-0.6,1.1-1.1,2-1.7,3.1c-2.1-1.2-4.1-2.3-6.2-3.5c0.5-1,0.9-1.8,1.5-2.9
		C79.4,28.3,81.5,29.4,83.7,30.5z"/>
	<path fill="#FFFFFF" d="M68.5,50.7c-1.6-1.9-3.1-3.6-4.7-5.5c0.8-0.7,1.5-1.4,2.1-2c1.7,1.7,3.3,3.3,5.1,5.1
		C70.2,49,69.4,49.8,68.5,50.7z"/>
</g>
</svg>
