<?xml version="1.0" encoding="utf-8"?>
<!-- Generator: Adobe Illustrator 18.0.0, SVG Export Plug-In . SVG Version: 6.00 Build 0)  -->
<!DOCTYPE svg PUBLIC "-//W3C//DTD SVG 1.1//EN" "http://www.w3.org/Graphics/SVG/1.1/DTD/svg11.dtd">
<svg version="1.1" id="Layer_1" xmlns="http://www.w3.org/2000/svg" xmlns:xlink="http://www.w3.org/1999/xlink" x="0px" y="0px"
	 viewBox="0 0 92 104.8" enable-background="new 0 0 92 104.8" xml:space="preserve">
<g>
	<path d="M46.7,19.9c0.1,1.4,0.1,2.8,0.2,4.2c0,1.4,0.1,2.8,0.1,4.2c0,2.8,0.1,5.6,0.2,8.5l0.1,8.5c0,2.8,0,5.6,0,8.5l0,1.1
		l-0.8-0.8l-3.5-3.5L39.4,47c-1.1-1.2-2.3-2.4-3.4-3.6c-1.1-1.2-2.3-2.4-3.4-3.6c1.2,1.1,2.4,2.2,3.6,3.4c1.2,1.1,2.4,2.3,3.6,3.4
		l3.6,3.4l3.5,3.5l-0.8,0.3c0-2.8-0.1-5.6,0-8.5l0.1-8.5c0-2.8,0.1-5.6,0.2-8.5c0-1.4,0.1-2.8,0.1-4.2
		C46.5,22.7,46.6,21.3,46.7,19.9z"/>
</g>
<g>
	<path d="M43.1,10h-1.6V9.3c1.1,0,1.6-0.2,1.8-1.4H44v7.4h-0.8V10z"/>
	<path d="M47.6,13.6c-0.4,0.3-0.5,0.6-0.5,1.1h3.1v0.7h-4c0-0.5,0.1-1.1,0.3-1.6c0.1-0.3,0.4-0.5,0.6-0.7l1.4-1.4
		c0.6-0.6,0.8-0.9,0.8-1.7c0-0.8-0.3-1.3-1.1-1.3c-1,0-1.1,1-1.1,1.8h-0.8V10c0-0.5,0.1-1.1,0.5-1.5C47,8.3,47.4,8,48.2,8
		c1.3,0,1.9,0.8,1.9,2.1c0,1.1-0.4,1.6-1.2,2.3L47.6,13.6z"/>
</g>
<g>
	<path d="M68.8,15.2L68.8,15.2l-1.1,0.6l-0.2-0.7l1.4-0.8h0.7v6.5h-0.8V15.2z"/>
</g>
<g>
	<path d="M80.2,35.6v-0.5l0.7-0.7c1.6-1.6,2.4-2.4,2.4-3.4c0-0.7-0.3-1.3-1.3-1.3c-0.6,0-1.1,0.3-1.4,0.5l-0.3-0.6
		c0.4-0.4,1.1-0.7,1.8-0.7c1.4,0,2,1,2,1.9c0,1.2-0.9,2.2-2.2,3.5l-0.5,0.5v0h2.9v0.7H80.2z"/>
</g>
<g>
	<path d="M86.4,55.2c0.2,0.2,0.8,0.4,1.4,0.4c1.1,0,1.5-0.7,1.5-1.3c0-0.9-0.8-1.3-1.7-1.3h-0.5v-0.7h0.5c0.6,0,1.4-0.3,1.4-1.1
		c0-0.5-0.3-1-1.1-1c-0.5,0-1,0.2-1.3,0.4l-0.2-0.6c0.3-0.2,1-0.5,1.7-0.5c1.3,0,1.8,0.8,1.8,1.5c0,0.7-0.4,1.2-1.2,1.5v0
		c0.8,0.2,1.4,0.8,1.4,1.7c0,1-0.8,1.9-2.4,1.9c-0.7,0-1.4-0.2-1.7-0.4L86.4,55.2z"/>
</g>
<g>
	<path d="M82.9,76.2v-1.8h-3v-0.6l2.9-4.1h0.9v4h0.9v0.7h-0.9v1.8H82.9z M82.9,73.7v-2.2c0-0.3,0-0.7,0-1h0c-0.2,0.4-0.4,0.7-0.5,1
		l-1.6,2.2v0H82.9z"/>
</g>
<g>
	<path d="M70.9,86.6h-2.5l-0.2,1.7c0.1,0,0.3,0,0.5,0c0.5,0,1,0.1,1.4,0.3c0.5,0.3,0.9,0.8,0.9,1.7c0,1.3-1,2.2-2.4,2.2
		c-0.7,0-1.3-0.2-1.6-0.4l0.2-0.7c0.3,0.2,0.8,0.4,1.4,0.4c0.8,0,1.5-0.5,1.5-1.4c0-0.8-0.6-1.4-1.9-1.4c-0.4,0-0.7,0-0.9,0.1
		l0.4-3.1h3.1V86.6z"/>
</g>
<g>
	<path d="M48.2,92c-0.2,0-0.4,0-0.7,0c-1.4,0.2-2.1,1.2-2.2,2.3h0c0.3-0.4,0.8-0.7,1.6-0.7c1.1,0,1.9,0.8,1.9,2.1
		c0,1.2-0.8,2.3-2.1,2.3c-1.4,0-2.3-1.1-2.3-2.7c0-1.3,0.5-2.3,1.1-2.9c0.5-0.5,1.3-0.9,2.1-1c0.3,0,0.5,0,0.6,0V92z M48,95.7
		c0-0.9-0.5-1.5-1.3-1.5c-0.5,0-1,0.3-1.3,0.8c-0.1,0.1-0.1,0.2-0.1,0.4c0,1.1,0.5,1.8,1.4,1.8C47.5,97.3,48,96.6,48,95.7z"/>
</g>
<g>
	<path d="M23.3,14L23.3,14l-1.1,0.6L22,14l1.4-0.8h0.7v6.5h-0.8V14z"/>
	<path d="M28.4,14L28.4,14l-1.1,0.6L27.1,14l1.4-0.8h0.7v6.5h-0.8V14z"/>
</g>
<g>
	<path d="M25.8,86.1v0.6L23,92.5h-0.9l2.8-5.7v0h-3.2v-0.7H25.8z"/>
</g>
<g>
	<path d="M6.2,74.5c0-0.8,0.5-1.4,1.3-1.7l0,0c-0.7-0.3-1-0.9-1-1.4c0-1,0.9-1.7,2-1.7c1.3,0,1.9,0.8,1.9,1.6c0,0.5-0.3,1.1-1.1,1.5
		v0c0.8,0.3,1.3,0.9,1.3,1.7c0,1.1-1,1.9-2.2,1.9C7.1,76.3,6.2,75.5,6.2,74.5z M9.7,74.5c0-0.8-0.5-1.2-1.4-1.4
		c-0.8,0.2-1.2,0.7-1.2,1.3c0,0.7,0.5,1.2,1.3,1.2C9.2,75.6,9.7,75.2,9.7,74.5z M7.3,71.3c0,0.6,0.5,1,1.2,1.2c0.6-0.2,1-0.6,1-1.2
		c0-0.5-0.3-1.1-1.1-1.1C7.7,70.2,7.3,70.7,7.3,71.3z"/>
</g>
<g>
	<path d="M2.4,55.4c0.2,0,0.4,0,0.7,0c0.5-0.1,1-0.3,1.3-0.6c0.4-0.4,0.7-1,0.9-1.7h0c-0.4,0.4-0.9,0.7-1.5,0.7
		c-1.2,0-1.9-0.9-1.9-2c0-1.2,0.9-2.3,2.2-2.3s2.1,1.1,2.1,2.7c0,1.4-0.5,2.4-1.1,3C4.5,55.7,3.9,56,3.2,56c-0.3,0-0.6,0.1-0.8,0
		V55.4z M2.7,51.7c0,0.8,0.5,1.4,1.2,1.4c0.6,0,1-0.3,1.3-0.7c0-0.1,0.1-0.2,0.1-0.3c0-1.1-0.4-1.9-1.3-1.9
		C3.2,50.1,2.7,50.7,2.7,51.7z"/>
</g>
<g>
	<path d="M7.4,29.9L7.4,29.9l-1.1,0.6l-0.2-0.7l1.4-0.8h0.7v6.5H7.4V29.9z"/>
	<path d="M14.9,32.3c0,2.2-0.8,3.4-2.2,3.4c-1.3,0-2.1-1.2-2.1-3.3c0-2.2,0.9-3.4,2.2-3.4C14.1,29,14.9,30.2,14.9,32.3z M11.3,32.4
		c0,1.7,0.5,2.6,1.3,2.6c0.9,0,1.3-1,1.3-2.7c0-1.6-0.4-2.6-1.3-2.6C11.9,29.7,11.3,30.6,11.3,32.4z"/>
</g>
</svg>
