<?xml version="1.0" encoding="utf-8"?>
<!-- Generator: Adobe Illustrator 18.0.0, SVG Export Plug-In . SVG Version: 6.00 Build 0)  -->
<!DOCTYPE svg PUBLIC "-//W3C//DTD SVG 1.1//EN" "http://www.w3.org/Graphics/SVG/1.1/DTD/svg11.dtd">
<svg version="1.1" xmlns="http://www.w3.org/2000/svg" xmlns:xlink="http://www.w3.org/1999/xlink" x="0px" y="0px"
	 viewBox="0 0 183 187" enable-background="new 0 0 183 187" xml:space="preserve">
<g id="Rectangles">
	<g opacity="0.8">
		<g>
			<path fill="#B4BFBF" d="M155.2,179.4c-48.2,0-96.5,0-144.7,0c-1.7,0-3.4,0-5.1,0c0.4,0.8,0.7,1.7,1.1,2.5c0-48.2,0-96.5,0-144.7
				c0-1.7,0-3.4,0-5.1c-0.4,0.8-0.7,1.7-1.1,2.5c48.2,0,96.5,0,144.7,0c1.7,0,3.4,0,5.1,0c-0.4-0.8-0.7-1.7-1.1-2.5
				c0,48.2,0,96.5,0,144.7c0,1.7,0,3.4,0,5.1c0,3,2.2,3,2.2,0c0-48.2,0-96.5,0-144.7c0-1.7,0-3.4,0-5.1c0-0.6-0.1-2.5-1.1-2.5
				c-48.2,0-96.5,0-144.7,0c-1.7,0-3.4,0-5.1,0c-1,0-1.1,1.9-1.1,2.5c0,48.2,0,96.5,0,144.7c0,1.7,0,3.4,0,5.1
				c0,0.6,0.1,2.5,1.1,2.5c48.2,0,96.5,0,144.7,0c1.7,0,3.4,0,5.1,0C156.7,184.4,156.7,179.4,155.2,179.4z"/>
		</g>
	</g>
	<g opacity="0.8">
		<g>
			<path fill="#7EB2CE" d="M166.8,167.2c-48.2,0-96.5,0-144.7,0c-1.7,0-3.4,0-5.1,0c0.4,0.8,0.7,1.7,1.1,2.5c0-48.2,0-96.5,0-144.7
				c0-1.7,0-3.4,0-5.1c-0.4,0.8-0.7,1.7-1.1,2.5c48.2,0,96.5,0,144.7,0c1.7,0,3.4,0,5.1,0c-0.4-0.8-0.7-1.7-1.1-2.5
				c0,48.2,0,96.5,0,144.7c0,1.7,0,3.4,0,5.1c0,3,2.2,3,2.2,0c0-48.2,0-96.5,0-144.7c0-1.7,0-3.4,0-5.1c0-0.6-0.1-2.5-1.1-2.5
				c-48.2,0-96.5,0-144.7,0c-1.7,0-3.4,0-5.1,0c-1,0-1.1,1.9-1.1,2.5c0,48.2,0,96.5,0,144.7c0,1.7,0,3.4,0,5.1
				c0,0.6,0.1,2.5,1.1,2.5c48.2,0,96.5,0,144.7,0c1.7,0,3.4,0,5.1,0C168.3,172.2,168.3,167.2,166.8,167.2z"/>
		</g>
	</g>
	<g opacity="0.8">
		<g>
			<path fill="#A55763" d="M178.5,155c-48.2,0-96.5,0-144.7,0c-1.7,0-3.4,0-5.1,0c0.4,0.8,0.7,1.7,1.1,2.5c0-48.2,0-96.5,0-144.7
				c0-1.7,0-3.4,0-5.1c-0.4,0.8-0.7,1.7-1.1,2.5c48.2,0,96.5,0,144.7,0c1.7,0,3.4,0,5.1,0c-0.4-0.8-0.7-1.7-1.1-2.5
				c0,48.2,0,96.5,0,144.7c0,1.7,0,3.4,0,5.1c0,3,2.2,3,2.2,0c0-48.2,0-96.5,0-144.7c0-1.7,0-3.4,0-5.1c0-0.6-0.1-2.5-1.1-2.5
				c-48.2,0-96.5,0-144.7,0c-1.7,0-3.4,0-5.1,0c-1,0-1.1,1.9-1.1,2.5c0,48.2,0,96.5,0,144.7c0,1.7,0,3.4,0,5.1
				c0,0.6,0.1,2.5,1.1,2.5c48.2,0,96.5,0,144.7,0c1.7,0,3.4,0,5.1,0C180,160,180,155,178.5,155z"/>
		</g>
	</g>
</g>
<g id="Face_Outlines">
	<g id="Background">
		<g>
			<path d="M123.9,98.5c0.1-4.6,0.1-9.3,0.1-13.9c0-3.2,0-6.4,0-9.6c0-4.6-1.1-9-3.1-12.8c-3.5-6.9-7.6-13.7-12.9-18.8
				c-3.1-3-6.6-5.3-10.4-6.3c-4-1.1-8.4-0.6-12.4,0.8c-6.8,2.4-12.2,8.2-16,15.3c-3.4,6.3-6.2,13.8-6.2,21.4c0,5.8,0,11.6,0,17.4
				c0,2,0,4,0,6c0,2.7,1.1,4.9,2.7,6.7c2.2,2.4,5.1,4,7.9,5.2c3.8,1.7,7.7,2.9,11.7,4c2.8,0.8,5.7,1.5,8.6,2.2"/>
		</g>
		<g>
			<path d="M62.7,87.9l-1.2,25.6c0,13.3,19.4,10.5,45.6,17c12.2,3,17.2,5.9,18.2,12c0,0,22.1-7.7,21.2-10.2
				c-3.2-8.9-11.6-11.2-19.7-14.7c-4.4-1.9-9.4-3.1-14.1-4.2c-5.2-1.2-11.7-1.1-17-2.2"/>
			<g>
				<path fill="#FFFFFF" d="M61.6,87.9c-0.3,6.3-0.6,12.6-0.9,19c-0.2,5.4-1.2,11.4,3,15.6c6.2,6.2,19.1,6.1,27.1,7.4
					c7.5,1.2,15,2.6,22.2,4.9c4.8,1.5,10.2,3.7,11.3,9.1c0.1,0.6,0.5,1.4,1.2,1.1c4.6-1.6,9.1-3.4,13.6-5.3c3.6-1.6,8.8-3.2,8.4-8
					c-0.9-8.4-11.4-12.7-17.9-15.4c-5.1-2.1-10.1-3.7-15.4-4.9c-6.1-1.4-12.4-1.4-18.5-2.6c-1.3-0.3-1.7,4.7,0,5
					c9.4,1.8,18.6,2.1,27.8,5.1c7.2,2.4,16,5.5,20.6,11.8c0.8,2.6,1.4,2.7,1.7,0.2c-0.2,0.2-0.5,0.5-0.8,0.6c-0.7,0.5-1.6,1-2.4,1.4
					c-2.4,1.3-5,2.4-7.6,3.4c-3.3,1.4-6.7,2.6-10,3.8c0.4,0.4,0.8,0.8,1.2,1.1c-1.8-9-11.4-11.3-19.1-13.3
					c-12.1-3.1-24.9-3.3-36.8-7.1c-3.5-1.1-7.6-3.3-7.7-7.4c-0.1-2.2,0.2-4.4,0.3-6.6c0.3-6.3,0.6-12.6,0.9-19
					C63.9,84.9,61.7,85,61.6,87.9L61.6,87.9z"/>
			</g>
		</g>
		<g>
			<path d="M96.5,114.9c7.8-1.9,15.5-3.9,22.6-7.7c3-1.8,6.4-4.9,6.2-9.1"/>
			<g>
				<path fill="#FFFFFF" d="M96.5,117.4c10.7-2.6,29.2-5.4,29.9-19.3c0.1-3-2.1-2.9-2.2,0c-0.3,5.3-7.6,7.9-11.6,9.5
					c-5.2,2.1-10.7,3.4-16.1,4.8C94.8,112.8,95.2,117.7,96.5,117.4L96.5,117.4z"/>
			</g>
		</g>
		<path fill="none" stroke="#7EB2CE" stroke-miterlimit="10" d="M122.8,147.3"/>
		<g>
			<g>
				<path d="M127.4,144c0.1,0.3,0.3,0.5,0.4,0.8c0.2,0.3,0.4,0.7,0.8,0.7c0.4,0,0.6-0.4,0.8-0.7c0.4-1,0.5-2.5,0-3.5
					c-0.1-0.3-0.3-0.5-0.4-0.8c-0.2-0.3-0.4-0.7-0.8-0.7c-0.4,0-0.6,0.4-0.8,0.7C126.9,141.5,126.8,143,127.4,144L127.4,144z"/>
			</g>
		</g>
		<g>
			<g>
				<path d="M142.7,138.5c0.1,0.4,0.3,0.7,0.4,1.1c0.1,0.3,0.4,0.7,0.8,0.7c0.4,0,0.6-0.4,0.8-0.7c0.5-1.1,0.4-2.4,0-3.5
					c-0.1-0.4-0.3-0.7-0.4-1.1c-0.1-0.3-0.4-0.7-0.8-0.7c-0.4,0-0.6,0.4-0.8,0.7C142.2,136.1,142.3,137.4,142.7,138.5L142.7,138.5z"
					/>
			</g>
		</g>
		<g>
			<g>
				<path d="M135.5,141.3c0.1,0.4,0.3,0.7,0.4,1.1c0.1,0.3,0.4,0.7,0.8,0.7c0.4,0,0.6-0.4,0.8-0.7c0.5-1.1,0.4-2.4,0-3.5
					c-0.1-0.4-0.3-0.7-0.4-1.1c-0.1-0.3-0.4-0.7-0.8-0.7c-0.4,0-0.6,0.4-0.8,0.7C135,138.9,135.1,140.2,135.5,141.3L135.5,141.3z"/>
			</g>
		</g>
		<g>
			<g>
				<path d="M131.9,142.8c0.1,0.4,0.3,0.8,0.4,1.1c0.1,0.3,0.4,0.7,0.8,0.7c0.4,0,0.6-0.4,0.8-0.7c0.5-1.1,0.4-2.4,0-3.5
					c-0.1-0.4-0.3-0.8-0.4-1.1c-0.1-0.3-0.4-0.7-0.8-0.7c-0.4,0-0.6,0.4-0.8,0.7C131.4,140.4,131.5,141.7,131.9,142.8L131.9,142.8z"
					/>
			</g>
		</g>
		<g>
			<g>
				<path d="M139.1,140.4c0.1,0.4,0.3,0.7,0.4,1.1c0.1,0.3,0.4,0.7,0.8,0.7c0.4,0,0.6-0.4,0.8-0.7c0.5-1.1,0.4-2.4,0-3.5
					c-0.1-0.4-0.3-0.7-0.4-1.1c-0.1-0.3-0.4-0.7-0.8-0.7c-0.4,0-0.6,0.4-0.8,0.7C138.6,137.9,138.7,139.3,139.1,140.4L139.1,140.4z"
					/>
			</g>
		</g>
		<g>
			<line x1="107.5" y1="50" x2="116.5" y2="61.5"/>
			<path fill="#FFFFFF" d="M107.5,50c0,0,0.7,0.6,1.7,1.6c1,1,2.2,2.3,3.3,3.8c1.1,1.4,2.2,2.9,2.9,4.1c0.7,1.2,1.1,2,1.1,2
				s-0.7-0.6-1.7-1.6c-1-1-2.2-2.3-3.3-3.8c-1.1-1.4-2.2-2.9-2.9-4.1C107.9,50.9,107.5,50,107.5,50z"/>
		</g>
		<polygon stroke="#000000" stroke-miterlimit="10" points="106,118 89,109.5 93.5,120.5 		"/>
		<polygon stroke="#000000" stroke-miterlimit="10" points="117.5,118 91.8,110.8 99.5,122.5 		"/>
	</g>
	<g id="Mask">
		<g>
			<rect x="61" y="84" width="2" height="7"/>
			<g>
				<path fill="#FFFFFF" d="M60.8,86.7c0.8,0,1.5,0,2.3,0c-0.4-0.8-0.7-1.7-1.1-2.5c0,2.3,0,4.6,0,7c0.4-0.8,0.7-1.7,1.1-2.5
					c-0.8,0-1.5,0-2.3,0c0.4,0.8,0.7,1.7,1.1,2.5c0-2.3,0-4.6,0-7c0-0.6-0.1-2.5-1.1-2.5c-1,0-1.1,1.9-1.1,2.5c0,2.3,0,4.6,0,7
					c0,0.6,0.1,2.5,1.1,2.5c0.8,0,1.5,0,2.3,0c1,0,1.1-1.9,1.1-2.5c0-2.3,0-4.6,0-7c0-0.6-0.1-2.5-1.1-2.5c-0.8,0-1.5,0-2.3,0
					C59.2,81.7,59.2,86.7,60.8,86.7z"/>
			</g>
		</g>
		<g>
			<rect x="119" y="84" width="4" height="7"/>
			<g>
				<path fill="#FFFFFF" d="M119,86.7c1.2,0,2.5,0,3.7,0c-0.4-0.8-0.7-1.7-1.1-2.5c0,2.3,0,4.6,0,7c0.4-0.8,0.7-1.7,1.1-2.5
					c-1.2,0-2.5,0-3.7,0c0.4,0.8,0.7,1.7,1.1,2.5c0-2.3,0-4.6,0-7c0-0.6-0.1-2.5-1.1-2.5s-1.1,1.9-1.1,2.5c0,2.3,0,4.6,0,7
					c0,0.6,0.1,2.5,1.1,2.5c1.2,0,2.5,0,3.7,0c1,0,1.1-1.9,1.1-2.5c0-2.3,0-4.6,0-7c0-0.6-0.1-2.5-1.1-2.5c-1.2,0-2.5,0-3.7,0
					C117.5,81.7,117.5,86.7,119,86.7z"/>
			</g>
		</g>
		<g>
			<path fill="#FFFFFF" d="M91,80.6c-7.4,0.1-16.2,0.9-26.2,2.9c-1,0.2-1.8,1.1-1.8,2.2l0,7.5c0,2.8,1.5,6.8,3.9,8.2
				c2,1.2,5.1,2.5,9.8,4.1c0,0,3.9,1.2,7.1,0c0,0,2.2-1.3,3.7-4.2c0.5-0.9,2.1-2.8,3.3-2.8s2.8,1.9,3.3,2.8c1.5,2.9,3.7,4.2,3.7,4.2
				c3.2,1.2,7.1,0,7.1,0c4.7-1.6,7.8-2.9,9.8-4.1c2.4-1.4,3.9-5.3,3.9-8.2l0-7.5c0-1.1-0.7-2-1.8-2.2c-10-2-18.8-2.7-26.2-2.9"/>
			<g>
				<path d="M91,78.1c-4.6,0.1-9.2,0.4-13.8,0.9c-4.3,0.5-9.7,0.6-13.6,2.5c-2.9,1.3-1.6,9.4-1.6,11.7c0,8.6,5.7,11.5,12.9,14.1
					c3,1.1,5.9,1.5,9.1,0.7c2.9-0.8,4.1-5,6.3-6.8c1.6-1.3,5.7,5.5,7.2,6.6c1.9,1.4,5.7,0.8,7.9,0.1c7.7-2.6,13.9-5,14.5-14
					c0.3-3.5,1-9.2-1.3-12.1c-1.9-2.3-9.4-2.1-12.2-2.5c-5.1-0.7-10.3-1-15.5-1.1c-1.5,0-1.6,5,0,5c6.9,0.2,13.8,0.8,20.7,1.9
					c0.5,0.1,6.2,1.1,6.2,0.8c0,0.6,0,1.2,0,1.8c0,1.8,0,3.6,0,5.4c0,6.4-9.3,9.4-14.4,10.3c-3.4,0.6-5.6-0.3-7.7-2.9
					c-1.2-1.5-2.3-4.5-4.6-4.5c-1.7,0-3.1,1.9-3.9,3.1c-2,3.1-3.4,4.4-7.3,4.4c-5.3-0.1-13.8-3.6-15.4-8.9c-0.5-1.5-0.2-3.5-0.2-5.1
					c0-0.9,0-1.7,0-2.6c0-2.1,2.7-1.3,4.4-1.6c7.4-1.3,15-2,22.5-2.2C92.6,83.1,92.6,78.1,91,78.1L91,78.1z"/>
			</g>
		</g>
	</g>
	<g id="Hair">
		<g>
			<path fill="#FFFFFF" d="M123.3,76.8C78,55.1,59.4,77.9,59.4,77.9c4.7,9.9,12.7,9.4,12.7,9.4s-4.1-5.1-1.3-9.5
				c0,0,1.6,4.1,4.7,5.2c3.1,1.1-3.1-5.4-0.3-5.2c2.9,0.1,15.8,4.2,42.3,0L123.3,76.8z"/>
			<g>
				<path fill="#FFFFFF" d="M123.6,74.4C108.3,67.2,90.7,62,74,66.8c-5.4,1.6-11.4,4.4-15.1,8.9c-0.8,0.9-0.7,2.9-0.2,3.9
					c2.6,5,7.2,10.4,13.5,10.1c1.6-0.1,1.2-3.9,0.6-4.7c-1.2-1.5-2.1-3.4-1.1-5.6c-0.5,0-1,0-1.6,0c1,2.5,7.4,9.8,7.4,3.2
					c0-0.9-0.3-1.8-0.6-2.6c-0.2-0.4-0.4-0.8-0.6-1.2c-1.6-2.8,0.7,1.1-1,1.3c1.2-0.2,2.8,0.4,3.9,0.6c14.7,2.5,29.5,0.8,44.1-1.6
					c1.7-0.3,1.4-5.2,0-5c-13.2,2.2-26.5,3.7-39.9,2.2c-2.7-0.3-6-1.5-8.6-1.1c-1.4,0.2-1.5,2.8-1.3,3.8c0.1,0.8,0.3,1.5,0.6,2.2
					c0.2,0.4,0.4,0.8,0.6,1.2c0.9,1.7,0,1.2,0.7-0.7c0.3-0.4,0.6-0.8,0.9-1.2c-2.1,0.6-4.1-3-4.7-4.5c-0.4-1-1.1-0.8-1.6,0
					c-2.2,4.4-1.5,9.6,1.5,13.4c0.2-1.6,0.4-3.1,0.6-4.7c-5.4,0.2-9.7-4.2-11.9-8.6c-0.1,1.3-0.1,2.6-0.2,3.9
					c3.6-4.3,9.6-6.9,14.8-8.4c16.1-4.7,33.6,0.8,48.2,7.6C124.5,79.9,125,75,123.6,74.4z"/>
			</g>
		</g>
		<g>
			<g>
				<path d="M124.3,74.3c-15.4-7.7-33.4-13.6-50.5-8.5c-5.8,1.7-12.1,5-15.9,9.9c-0.8,1-0.7,2.9-0.2,3.9c2.5,5.3,7.2,11.4,13.8,11.1
					c1.7-0.1,1.1-3.8,0.6-4.7c-1.4-1.9-2.2-4.1-1.1-6.5c-0.5,0-1,0-1.6,0C70.3,82,77,90.1,77,83.4c0-2.1-1.2-3.8-2-5.7
					c1.3,3-1.4,2.4,0.9,2.7c0.9,0.2,1.9,0.3,2.8,0.5c15.2,2.7,30.4,0.9,45.4-1.7c1.7-0.3,1.4-5.2,0-5c-14.4,2.5-28.9,4.2-43.5,2
					c-2.2-0.3-6.9-2.4-7.5,0.9c-0.4,2.2,0.4,4,1.4,6c0.2,0.4,0.4,0.8,0.6,1.2c0.2-1,0.4-2.1,0.6-3.1c-1.1-0.3-1.9-0.9-2.6-1.8
					c-0.9-0.9-1.5-2.2-1.9-3.3c-0.4-1-1.2-0.8-1.6,0c-2.2,4.7-1.5,10.2,1.6,14.4c0.2-1.6,0.4-3.1,0.6-4.7c-5.8,0.3-10-4.9-12.3-9.6
					c-0.1,1.3-0.1,2.6-0.2,3.9c3.4-4.4,9.2-7.3,14.3-9c16.7-5.8,35.4,0.5,50.4,8.1C125.2,79.9,125.7,75,124.3,74.3z"/>
			</g>
		</g>
	</g>
</g>
</svg>
